<svg xmlns="http://www.w3.org/2000/svg" viewBox="0 0 1250 670" width="1250" height="670" style="background-color: #ffffff; font-family: -apple-system, BlinkMacSystemFont, 'Segoe UI', Roboto, Helvetica, Arial, sans-serif;">
  <defs>
    <pattern id="patioGrid" width="24" height="24" patternUnits="userSpaceOnUse">
      <path d="M 24 0 L 0 24 M 0 0 L 24 24" fill="none" stroke="#e2e8f0" stroke-width="0.75"/>
    </pattern>
    <linearGradient id="corridorGrad" x1="0%" y1="0%" x2="100%" y2="100%">
      <stop offset="0%" stop-color="#f8fafc"/>
      <stop offset="100%" stop-color="#e2e8f0"/>
    </linearGradient>
    <filter id="boxShadow" x="-2%" y="-2%" width="104%" height="104%">
      <feDropShadow dx="0" dy="2" stdDeviation="2.5" flood-color="#0f172a" flood-opacity="0.07"/>
    </filter>
  </defs>
  <!-- Muro exterior e interior -->
  <rect x="20" y="16" width="1175" height="635" rx="10" fill="#f8fafc" stroke="#334155" stroke-width="4"/>
  <rect x="24" y="20" width="1167" height="627" rx="8" fill="#ffffff" stroke="#94a3b8" stroke-width="1.5" stroke-dasharray="8 4"/>
  <!-- Pasillos -->
  <rect x="320" y="175" width="540" height="45" rx="2" fill="url(#corridorGrad)" stroke="#94a3b8" stroke-width="1.25" stroke-dasharray="4 2"/>
  <rect x="150" y="175" width="55" height="335" rx="2" fill="url(#corridorGrad)" stroke="#94a3b8" stroke-width="1.25" stroke-dasharray="4 2"/>
  <rect x="990" y="175" width="55" height="335" rx="2" fill="url(#corridorGrad)" stroke="#94a3b8" stroke-width="1.25" stroke-dasharray="4 2"/>
  <rect x="540" y="365" width="45" height="280" rx="2" fill="url(#corridorGrad)" stroke="#94a3b8" stroke-width="1.25" stroke-dasharray="4 2"/>
  <rect x="205" y="465" width="785" height="45" rx="2" fill="url(#corridorGrad)" stroke="#94a3b8" stroke-width="1.25" stroke-dasharray="4 2"/>
  <!-- Patio Central -->
  <rect x="320" y="220" width="540" height="140" fill="url(#patioGrid)" stroke="#94a3b8" stroke-width="1.5"/>
  <circle cx="590" cy="290" r="42" fill="none" stroke="#bbf7d0" stroke-width="8"/>
  <circle cx="590" cy="290" r="26" fill="#dcfce7" stroke="#4ade80" stroke-width="2"/>
  <circle cx="590" cy="290" r="14" fill="#22c55e" stroke="#16a34a" stroke-width="1.5"/>
  <text x="590" y="322" text-anchor="middle" fill="#15803d" font-size="12" font-weight="bold" letter-spacing="3">PATIO CENTRAL</text>
  <rect x="390" y="255" width="48" height="8" rx="2" fill="#cbd5e1"/>
  <rect x="390" y="315" width="48" height="8" rx="2" fill="#cbd5e1"/>
  <rect x="740" y="255" width="48" height="8" rx="2" fill="#cbd5e1"/>
  <rect x="740" y="315" width="48" height="8" rx="2" fill="#cbd5e1"/>
  <!-- Escalera -->
  <rect x="585" y="175" width="50" height="45" fill="#f1f5f9" stroke="#64748b" stroke-width="1.2"/>
  <line x1="585" y1="183" x2="635" y2="183" stroke="#94a3b8" stroke-width="1"/>
  <line x1="585" y1="191" x2="635" y2="191" stroke="#94a3b8" stroke-width="1"/>
  <line x1="585" y1="199" x2="635" y2="199" stroke="#94a3b8" stroke-width="1"/>
  <line x1="585" y1="207" x2="635" y2="207" stroke="#94a3b8" stroke-width="1"/>
  <line x1="585" y1="215" x2="635" y2="215" stroke="#94a3b8" stroke-width="1"/>
  <text x="610" y="198" text-anchor="middle" fill="#334155" font-size="7.5" font-weight="bold">ESCALERA</text>
  <text x="460" y="197.5" text-anchor="middle" dominant-baseline="middle" fill="#64748b" font-size="10.5" font-weight="bold" letter-spacing="3">PASILLO NORTE</text>
  <text x="177.5" y="342.5" text-anchor="middle" dominant-baseline="middle" fill="#64748b" font-size="10.5" font-weight="bold" letter-spacing="3" transform="rotate(-90 177.5 342.5)">PASILLO OESTE</text>
  <text x="1017.5" y="342.5" text-anchor="middle" dominant-baseline="middle" fill="#64748b" font-size="10.5" font-weight="bold" letter-spacing="3" transform="rotate(-90 1017.5 342.5)">PASILLO ESTE</text>
  <text x="562.5" y="505.0" text-anchor="middle" dominant-baseline="middle" fill="#64748b" font-size="10.5" font-weight="bold" letter-spacing="3" transform="rotate(-90 562.5 505.0)">CONECTOR SUR</text>
  <text x="780" y="487.5" text-anchor="middle" dominant-baseline="middle" fill="#64748b" font-size="10.5" font-weight="bold" letter-spacing="3">CIRCULACIÓN SUR</text>
  <!-- Espacios y Aulas -->
  <g id="admin_deposito">
    <rect x="35" y="28" width="115" height="147" rx="6" fill="#f8fafc" stroke="#64748b" stroke-width="1.75" filter="url(#boxShadow)"/>
    <path d="M 43 36 Q 53 46 59 36" fill="none" stroke="#f43f5e" stroke-width="1" opacity="0.45"/>
    <text x="45" y="49" fill="#0f172a" font-size="11.5" font-weight="bold">Depósito</text>
    <text x="140" y="49" text-anchor="end" font-size="10">📦</text>
    <text x="45" y="68" fill="#1e293b" font-size="9" font-weight="bold"><tspan fill="#d97706" font-weight="bold">M: </tspan>Insumos y Material</text>
    <text x="45" y="84" fill="#1e293b" font-size="9" font-weight="bold"><tspan fill="#2563eb" font-weight="bold">T: </tspan>Insumos y Material</text>
    <text x="45" y="100" fill="#1e293b" font-size="9" font-weight="bold"><tspan fill="#7c3aed" font-weight="bold">N: </tspan>Insumos y Material</text>
  </g>
  <g id="admin_cocina_inst">
    <rect x="150" y="28" width="170" height="147" rx="6" fill="#ffedd5" stroke="#f97316" stroke-width="1.75" filter="url(#boxShadow)"/>
    <path d="M 158 36 Q 168 46 174 36" fill="none" stroke="#f43f5e" stroke-width="1" opacity="0.45"/>
    <text x="160" y="49" fill="#0f172a" font-size="11.5" font-weight="bold">Cocina</text>
    <text x="310" y="49" text-anchor="end" font-size="10">🍳</text>
    <text x="160" y="68" fill="#1e293b" font-size="9" font-weight="bold"><tspan fill="#d97706" font-weight="bold">M: </tspan>Cocina Institucional</text>
    <text x="160" y="84" fill="#1e293b" font-size="9" font-weight="bold"><tspan fill="#2563eb" font-weight="bold">T: </tspan>Cocina Institucional</text>
    <text x="160" y="100" fill="#1e293b" font-size="9" font-weight="bold"><tspan fill="#7c3aed" font-weight="bold">N: </tspan>Cocina Institucional</text>
  </g>
  <g id="aula_21">
    <rect x="320" y="28" width="105" height="147" rx="6" fill="#fef3c7" stroke="#f59e0b" stroke-width="1.75" filter="url(#boxShadow)"/>
    <path d="M 328 36 Q 338 46 344 36" fill="none" stroke="#f43f5e" stroke-width="1" opacity="0.45"/>
    <text x="330" y="49" fill="#0f172a" font-size="11.5" font-weight="bold">Aula 21</text>
    <text x="415" y="49" text-anchor="end" font-size="10">🦺</text>
    <text x="330" y="68" fill="#1e293b" font-size="8.5" font-weight="bold"><tspan fill="#d97706" font-weight="bold">M: </tspan>Higiene y Seguridad 2°</text>
    <text x="330" y="84" fill="#1e293b" font-size="8.5" font-weight="bold"><tspan fill="#2563eb" font-weight="bold">T: </tspan>Libre</text>
    <text x="330" y="100" fill="#1e293b" font-size="8.5" font-weight="bold"><tspan fill="#7c3aed" font-weight="bold">N: </tspan>Libre</text>
  </g>
  <g id="aula_22">
    <rect x="425" y="28" width="105" height="147" rx="6" fill="#ffffff" stroke="#94a3b8" stroke-width="1.75" filter="url(#boxShadow)"/>
    <path d="M 433 36 Q 443 46 449 36" fill="none" stroke="#f43f5e" stroke-width="1" opacity="0.45"/>
    <text x="435" y="49" fill="#0f172a" font-size="11.5" font-weight="bold">Aula 22</text>
    <text x="520" y="49" text-anchor="end" font-size="10">✨</text>
    <rect x="474" y="35" width="48" height="15" rx="3" fill="#059669"/>
    <text x="498.0" y="46" text-anchor="middle" fill="#ffffff" font-size="8" font-weight="bold">LIBRE</text>
    <text x="435" y="68" fill="#1e293b" font-size="8.5" font-weight="bold"><tspan fill="#d97706" font-weight="bold">M: </tspan>100% Libre</text>
    <text x="435" y="84" fill="#1e293b" font-size="8.5" font-weight="bold"><tspan fill="#2563eb" font-weight="bold">T: </tspan>Libre</text>
    <text x="435" y="100" fill="#1e293b" font-size="8.5" font-weight="bold"><tspan fill="#7c3aed" font-weight="bold">N: </tspan>Libre</text>
  </g>
  <g id="aula_23">
    <rect x="530" y="28" width="105" height="147" rx="6" fill="#dcfce7" stroke="#22c55e" stroke-width="1.75" filter="url(#boxShadow)"/>
    <path d="M 538 36 Q 548 46 554 36" fill="none" stroke="#f43f5e" stroke-width="1" opacity="0.45"/>
    <text x="540" y="49" fill="#0f172a" font-size="11.5" font-weight="bold">Aula 23</text>
    <text x="625" y="49" text-anchor="end" font-size="10">🏃</text>
    <text x="540" y="68" fill="#1e293b" font-size="8.5" font-weight="bold"><tspan fill="#d97706" font-weight="bold">M: </tspan>Preparación Física 2°</text>
    <text x="540" y="84" fill="#1e293b" font-size="8.5" font-weight="bold"><tspan fill="#2563eb" font-weight="bold">T: </tspan>Libre</text>
    <text x="540" y="100" fill="#1e293b" font-size="8.5" font-weight="bold"><tspan fill="#7c3aed" font-weight="bold">N: </tspan>Libre</text>
  </g>
  <g id="admin_taller">
    <rect x="635" y="28" width="225" height="147" rx="6" fill="#f0fdf4" stroke="#16a34a" stroke-width="1.75" filter="url(#boxShadow)"/>
    <path d="M 643 36 Q 653 46 659 36" fill="none" stroke="#f43f5e" stroke-width="1" opacity="0.45"/>
    <text x="645" y="49" fill="#0f172a" font-size="10.5" font-weight="bold">Taller Prácticas</text>
    <text x="850" y="49" text-anchor="end" font-size="10">⚙️</text>
    <text x="645" y="68" fill="#1e293b" font-size="9" font-weight="bold"><tspan fill="#d97706" font-weight="bold">M: </tspan>Taller General</text>
    <text x="645" y="84" fill="#1e293b" font-size="9" font-weight="bold"><tspan fill="#2563eb" font-weight="bold">T: </tspan>Taller General</text>
    <text x="645" y="100" fill="#1e293b" font-size="9" font-weight="bold"><tspan fill="#7c3aed" font-weight="bold">N: </tspan>Taller General</text>
  </g>
  <g id="aula_10">
    <rect x="860" y="28" width="130" height="147" rx="6" fill="#ffe4e6" stroke="#f43f5e" stroke-width="1.75" filter="url(#boxShadow)"/>
    <path d="M 868 36 Q 878 46 884 36" fill="none" stroke="#f43f5e" stroke-width="1" opacity="0.45"/>
    <text x="870" y="49" fill="#0f172a" font-size="11.5" font-weight="bold">Aula 10</text>
    <text x="980" y="49" text-anchor="end" font-size="10">🏥</text>
    <text x="870" y="68" fill="#1e293b" font-size="9" font-weight="bold"><tspan fill="#d97706" font-weight="bold">M: </tspan>Enfermería 3°</text>
    <text x="870" y="84" fill="#1e293b" font-size="9" font-weight="bold"><tspan fill="#2563eb" font-weight="bold">T: </tspan>Software 3°</text>
    <text x="870" y="100" fill="#1e293b" font-size="9" font-weight="bold"><tspan fill="#7c3aed" font-weight="bold">N: </tspan>Acompañamiento 1°</text>
  </g>
  <g id="aula_9">
    <rect x="990" y="28" width="175" height="147" rx="6" fill="#fef3c7" stroke="#f59e0b" stroke-width="1.75" filter="url(#boxShadow)"/>
    <path d="M 998 36 Q 1008 46 1014 36" fill="none" stroke="#f43f5e" stroke-width="1" opacity="0.45"/>
    <text x="1000" y="49" fill="#0f172a" font-size="11.5" font-weight="bold">Aula 9</text>
    <text x="1155" y="49" text-anchor="end" font-size="10">🦺</text>
    <text x="1000" y="68" fill="#1e293b" font-size="9" font-weight="bold"><tspan fill="#d97706" font-weight="bold">M: </tspan>Higiene y Seguridad 1°</text>
    <text x="1000" y="84" fill="#1e293b" font-size="9" font-weight="bold"><tspan fill="#2563eb" font-weight="bold">T: </tspan>Enfermería 1°</text>
    <text x="1000" y="100" fill="#1e293b" font-size="9" font-weight="bold"><tspan fill="#7c3aed" font-weight="bold">N: </tspan>Prótesis 1°</text>
  </g>
  <g id="aula_17">
    <rect x="35" y="175" width="115" height="155" rx="6" fill="#ffe4e6" stroke="#f43f5e" stroke-width="1.75" filter="url(#boxShadow)"/>
    <path d="M 43 183 Q 53 193 59 183" fill="none" stroke="#f43f5e" stroke-width="1" opacity="0.45"/>
    <text x="45" y="196" fill="#0f172a" font-size="11.5" font-weight="bold">Aula 17</text>
    <text x="140" y="196" text-anchor="end" font-size="10">🏥</text>
    <text x="45" y="215" fill="#1e293b" font-size="9" font-weight="bold"><tspan fill="#d97706" font-weight="bold">M: </tspan>Enfermería 2°</text>
    <text x="45" y="231" fill="#1e293b" font-size="9" font-weight="bold"><tspan fill="#2563eb" font-weight="bold">T: </tspan>Agente Sanitario 1°</text>
    <text x="45" y="247" fill="#1e293b" font-size="9" font-weight="bold"><tspan fill="#7c3aed" font-weight="bold">N: </tspan>Niñez 1°</text>
  </g>
  <g id="aula_18">
    <rect x="35" y="330" width="115" height="150" rx="6" fill="#f3e8ff" stroke="#a855f7" stroke-width="1.75" filter="url(#boxShadow)"/>
    <path d="M 43 338 Q 53 348 59 338" fill="none" stroke="#f43f5e" stroke-width="1" opacity="0.45"/>
    <text x="45" y="351" fill="#0f172a" font-size="11.5" font-weight="bold">Aula 18</text>
    <text x="140" y="351" text-anchor="end" font-size="10">⚖️</text>
    <text x="45" y="370" fill="#1e293b" font-size="9" font-weight="bold"><tspan fill="#d97706" font-weight="bold">M: </tspan>Jurídica 1°</text>
    <text x="45" y="386" fill="#1e293b" font-size="9" font-weight="bold"><tspan fill="#2563eb" font-weight="bold">T: </tspan>Agente Sanitario 2°</text>
    <text x="45" y="402" fill="#1e293b" font-size="9" font-weight="bold"><tspan fill="#7c3aed" font-weight="bold">N: </tspan>Niñez 2°</text>
    <text x="45" y="470" fill="#b45309" font-size="7.5" font-weight="600">⚠️ Lun: Enf 2 15:20-17:20</text>
  </g>
  <g id="aula_19">
    <rect x="35" y="480" width="115" height="160" rx="6" fill="#fef3c7" stroke="#f59e0b" stroke-width="1.75" filter="url(#boxShadow)"/>
    <path d="M 43 488 Q 53 498 59 488" fill="none" stroke="#f43f5e" stroke-width="1" opacity="0.45"/>
    <text x="45" y="501" fill="#0f172a" font-size="11.5" font-weight="bold">Aula 19</text>
    <text x="140" y="501" text-anchor="end" font-size="10">🦺</text>
    <text x="45" y="520" fill="#1e293b" font-size="9" font-weight="bold"><tspan fill="#d97706" font-weight="bold">M: </tspan>Higiene y Seguridad 2°</text>
    <text x="45" y="536" fill="#1e293b" font-size="9" font-weight="bold"><tspan fill="#2563eb" font-weight="bold">T: </tspan>Esterilización 2°</text>
    <text x="45" y="552" fill="#1e293b" font-size="9" font-weight="bold"><tspan fill="#7c3aed" font-weight="bold">N: </tspan>Higiene y Seguridad 3°</text>
  </g>
  <g id="aula_16">
    <rect x="205" y="175" width="115" height="145" rx="6" fill="#e0e7ff" stroke="#6366f1" stroke-width="1.75" filter="url(#boxShadow)"/>
    <path d="M 213 183 Q 223 193 229 183" fill="none" stroke="#f43f5e" stroke-width="1" opacity="0.45"/>
    <text x="215" y="196" fill="#0f172a" font-size="11.5" font-weight="bold">Aula 16</text>
    <text x="310" y="196" text-anchor="end" font-size="10">💻</text>
    <rect x="264" y="182" width="48" height="15" rx="3" fill="#059669"/>
    <text x="288.0" y="193" text-anchor="middle" fill="#ffffff" font-size="8" font-weight="bold">LIBRE M.</text>
    <text x="215" y="215" fill="#1e293b" font-size="9" font-weight="bold"><tspan fill="#d97706" font-weight="bold">M: </tspan>Libre</text>
    <text x="215" y="231" fill="#1e293b" font-size="9" font-weight="bold"><tspan fill="#2563eb" font-weight="bold">T: </tspan>Software 1°</text>
    <text x="215" y="247" fill="#1e293b" font-size="9" font-weight="bold"><tspan fill="#7c3aed" font-weight="bold">N: </tspan>Hemoterapia 3°</text>
  </g>
  <g id="aula_15">
    <rect x="205" y="320" width="115" height="145" rx="6" fill="#fef3c7" stroke="#f59e0b" stroke-width="1.75" filter="url(#boxShadow)"/>
    <path d="M 213 328 Q 223 338 229 328" fill="none" stroke="#f43f5e" stroke-width="1" opacity="0.45"/>
    <text x="215" y="341" fill="#0f172a" font-size="11.5" font-weight="bold">Aula 15</text>
    <text x="310" y="341" text-anchor="end" font-size="10">🦺</text>
    <text x="215" y="360" fill="#1e293b" font-size="9" font-weight="bold"><tspan fill="#d97706" font-weight="bold">M: </tspan>Higiene y Seguridad 3°</text>
    <text x="215" y="376" fill="#1e293b" font-size="9" font-weight="bold"><tspan fill="#2563eb" font-weight="bold">T: </tspan>Esterilización 3°</text>
    <text x="215" y="392" fill="#1e293b" font-size="9" font-weight="bold"><tspan fill="#7c3aed" font-weight="bold">N: </tspan>Hemoterapia 2°</text>
  </g>
  <g id="admin_banos_oeste">
    <rect x="320" y="360" width="85" height="105" rx="6" fill="#f1f5f9" stroke="#64748b" stroke-width="1.75" filter="url(#boxShadow)"/>
    <path d="M 328 368 Q 338 378 344 368" fill="none" stroke="#f43f5e" stroke-width="1" opacity="0.45"/>
    <text x="330" y="381" fill="#0f172a" font-size="10.5" font-weight="bold">Baños Oeste</text>
    <text x="330" y="400" fill="#1e293b" font-size="8.5" font-weight="bold"><tspan fill="#d97706" font-weight="bold">M: </tspan>Sanitarios</text>
    <text x="330" y="416" fill="#1e293b" font-size="8.5" font-weight="bold"><tspan fill="#2563eb" font-weight="bold">T: </tspan>Sanitarios</text>
    <text x="330" y="432" fill="#1e293b" font-size="8.5" font-weight="bold"><tspan fill="#7c3aed" font-weight="bold">N: </tspan>Sanitarios</text>
  </g>
  <g id="admin_direccion">
    <rect x="405" y="360" width="130" height="105" rx="6" fill="#f8fafc" stroke="#475569" stroke-width="1.75" filter="url(#boxShadow)"/>
    <path d="M 413 368 Q 423 378 429 368" fill="none" stroke="#f43f5e" stroke-width="1" opacity="0.45"/>
    <text x="415" y="381" fill="#0f172a" font-size="11.5" font-weight="bold">Dirección</text>
    <text x="525" y="381" text-anchor="end" font-size="10">🏛️</text>
    <text x="415" y="400" fill="#1e293b" font-size="9" font-weight="bold"><tspan fill="#d97706" font-weight="bold">M: </tspan>Equipo Directivo</text>
    <text x="415" y="416" fill="#1e293b" font-size="9" font-weight="bold"><tspan fill="#2563eb" font-weight="bold">T: </tspan>Equipo Directivo</text>
    <text x="415" y="432" fill="#1e293b" font-size="9" font-weight="bold"><tspan fill="#7c3aed" font-weight="bold">N: </tspan>Guardia Directiva</text>
  </g>
  <g id="admin_profesores">
    <rect x="585" y="360" width="115" height="105" rx="6" fill="#f8fafc" stroke="#475569" stroke-width="1.75" filter="url(#boxShadow)"/>
    <path d="M 593 368 Q 603 378 609 368" fill="none" stroke="#f43f5e" stroke-width="1" opacity="0.45"/>
    <text x="595" y="381" fill="#0f172a" font-size="10.5" font-weight="bold">Sala Profesores</text>
    <text x="690" y="381" text-anchor="end" font-size="10">👥</text>
    <text x="595" y="400" fill="#1e293b" font-size="9" font-weight="bold"><tspan fill="#d97706" font-weight="bold">M: </tspan>Sala de Encuentro</text>
    <text x="595" y="416" fill="#1e293b" font-size="9" font-weight="bold"><tspan fill="#2563eb" font-weight="bold">T: </tspan>Sala de Encuentro</text>
    <text x="595" y="432" fill="#1e293b" font-size="9" font-weight="bold"><tspan fill="#7c3aed" font-weight="bold">N: </tspan>Sala de Encuentro</text>
  </g>
  <g id="aula_13">
    <rect x="705" y="360" width="115" height="105" rx="6" fill="#e0e7ff" stroke="#6366f1" stroke-width="1.75" filter="url(#boxShadow)"/>
    <path d="M 713 368 Q 723 378 729 368" fill="none" stroke="#f43f5e" stroke-width="1" opacity="0.45"/>
    <text x="715" y="381" fill="#0f172a" font-size="11.5" font-weight="bold">Aula 13</text>
    <text x="810" y="381" text-anchor="end" font-size="10">💻</text>
    <text x="715" y="400" fill="#1e293b" font-size="9" font-weight="bold"><tspan fill="#d97706" font-weight="bold">M: </tspan>Ciencia de Datos e IA </text>
    <text x="715" y="416" fill="#1e293b" font-size="9" font-weight="bold"><tspan fill="#2563eb" font-weight="bold">T: </tspan>Software 2°</text>
    <text x="715" y="432" fill="#1e293b" font-size="9" font-weight="bold"><tspan fill="#7c3aed" font-weight="bold">N: </tspan>Niñez 3°</text>
  </g>
  <g id="aula_12">
    <rect x="825" y="360" width="165" height="105" rx="6" fill="#ffedd5" stroke="#f97316" stroke-width="1.75" filter="url(#boxShadow)"/>
    <path d="M 833 368 Q 843 378 849 368" fill="none" stroke="#f43f5e" stroke-width="1" opacity="0.45"/>
    <text x="835" y="381" fill="#0f172a" font-size="11.5" font-weight="bold">Aula 12</text>
    <text x="980" y="381" text-anchor="end" font-size="10">🍳</text>
    <text x="835" y="400" fill="#1e293b" font-size="9" font-weight="bold"><tspan fill="#d97706" font-weight="bold">M: </tspan>Cocina 1°</text>
    <text x="835" y="416" fill="#1e293b" font-size="9" font-weight="bold"><tspan fill="#2563eb" font-weight="bold">T: </tspan>Servicios de Salud 2°</text>
    <text x="835" y="432" fill="#1e293b" font-size="9" font-weight="bold"><tspan fill="#7c3aed" font-weight="bold">N: </tspan>Financiera 1°</text>
  </g>
  <g id="aula_11">
    <rect x="870" y="175" width="120" height="185" rx="6" fill="#ffedd5" stroke="#f97316" stroke-width="1.75" filter="url(#boxShadow)"/>
    <path d="M 878 183 Q 888 193 894 183" fill="none" stroke="#f43f5e" stroke-width="1" opacity="0.45"/>
    <text x="880" y="196" fill="#0f172a" font-size="11.5" font-weight="bold">Aula 11</text>
    <text x="980" y="196" text-anchor="end" font-size="10">🍳</text>
    <text x="880" y="215" fill="#1e293b" font-size="9" font-weight="bold"><tspan fill="#d97706" font-weight="bold">M: </tspan>Cocina 2°</text>
    <text x="880" y="231" fill="#1e293b" font-size="9" font-weight="bold"><tspan fill="#2563eb" font-weight="bold">T: </tspan>Laboratorio 3°</text>
    <text x="880" y="247" fill="#1e293b" font-size="9" font-weight="bold"><tspan fill="#7c3aed" font-weight="bold">N: </tspan>Enfermería 3°</text>
  </g>
  <g id="aula_8">
    <rect x="1045" y="175" width="120" height="110" rx="6" fill="#f3e8ff" stroke="#a855f7" stroke-width="1.75" filter="url(#boxShadow)"/>
    <path d="M 1053 183 Q 1063 193 1069 183" fill="none" stroke="#f43f5e" stroke-width="1" opacity="0.45"/>
    <text x="1055" y="196" fill="#0f172a" font-size="11.5" font-weight="bold">Aula 8</text>
    <text x="1155" y="196" text-anchor="end" font-size="10">⚖️</text>
    <text x="1055" y="215" fill="#1e293b" font-size="9" font-weight="bold"><tspan fill="#d97706" font-weight="bold">M: </tspan>Jurídica 3°</text>
    <text x="1055" y="231" fill="#1e293b" font-size="9" font-weight="bold"><tspan fill="#2563eb" font-weight="bold">T: </tspan>Servicio de Salud 1°</text>
    <text x="1055" y="247" fill="#1e293b" font-size="9" font-weight="bold"><tspan fill="#7c3aed" font-weight="bold">N: </tspan>Acompañamiento 3°</text>
  </g>
  <g id="aula_6">
    <rect x="1045" y="290" width="120" height="105" rx="6" fill="#dcfce7" stroke="#22c55e" stroke-width="1.75" filter="url(#boxShadow)"/>
    <path d="M 1053 298 Q 1063 308 1069 298" fill="none" stroke="#f43f5e" stroke-width="1" opacity="0.45"/>
    <text x="1055" y="311" fill="#0f172a" font-size="11.5" font-weight="bold">Aula 6</text>
    <text x="1155" y="311" text-anchor="end" font-size="10">🏃</text>
    <text x="1055" y="330" fill="#1e293b" font-size="9" font-weight="bold"><tspan fill="#d97706" font-weight="bold">M: </tspan>Preparación Física 3°</text>
    <text x="1055" y="346" fill="#1e293b" font-size="9" font-weight="bold"><tspan fill="#2563eb" font-weight="bold">T: </tspan>Laboratorio 2°</text>
    <text x="1055" y="362" fill="#1e293b" font-size="9" font-weight="bold"><tspan fill="#7c3aed" font-weight="bold">N: </tspan>Acompañamiento 2°</text>
  </g>
  <g id="aula_5">
    <rect x="1045" y="400" width="120" height="105" rx="6" fill="#fef3c7" stroke="#f59e0b" stroke-width="1.75" filter="url(#boxShadow)"/>
    <path d="M 1053 408 Q 1063 418 1069 408" fill="none" stroke="#f43f5e" stroke-width="1" opacity="0.45"/>
    <text x="1055" y="421" fill="#0f172a" font-size="11.5" font-weight="bold">Aula 5</text>
    <text x="1155" y="421" text-anchor="end" font-size="10">🦺</text>
    <text x="1055" y="440" fill="#1e293b" font-size="9" font-weight="bold"><tspan fill="#d97706" font-weight="bold">M: </tspan>Higiene y Seguridad 1°</text>
    <text x="1055" y="456" fill="#1e293b" font-size="9" font-weight="bold"><tspan fill="#2563eb" font-weight="bold">T: </tspan>Higiene y Seguridad 1°</text>
    <text x="1055" y="472" fill="#1e293b" font-size="9" font-weight="bold"><tspan fill="#7c3aed" font-weight="bold">N: </tspan>Periodismo 3°</text>
  </g>
  <g id="aula_20">
    <rect x="150" y="510" width="180" height="130" rx="6" fill="#dcfce7" stroke="#22c55e" stroke-width="1.75" filter="url(#boxShadow)"/>
    <path d="M 158 518 Q 168 528 174 518" fill="none" stroke="#f43f5e" stroke-width="1" opacity="0.45"/>
    <text x="160" y="531" fill="#0f172a" font-size="11.5" font-weight="bold">Aula 20</text>
    <text x="320" y="531" text-anchor="end" font-size="10">🏃</text>
    <text x="160" y="550" fill="#1e293b" font-size="9" font-weight="bold"><tspan fill="#d97706" font-weight="bold">M: </tspan>Preparación Física 1°</text>
    <text x="160" y="566" fill="#1e293b" font-size="9" font-weight="bold"><tspan fill="#2563eb" font-weight="bold">T: </tspan>Esterilización 1°</text>
    <text x="160" y="582" fill="#1e293b" font-size="9" font-weight="bold"><tspan fill="#7c3aed" font-weight="bold">N: </tspan>Enfermería 2°</text>
    <text x="160" y="630" fill="#b45309" font-size="7.5" font-weight="600">⚠️ Mar: Enf 3 15:20-17:20</text>
  </g>
  <g id="admin_banos_sur">
    <rect x="330" y="510" width="95" height="130" rx="6" fill="#f1f5f9" stroke="#64748b" stroke-width="1.75" filter="url(#boxShadow)"/>
    <path d="M 338 518 Q 348 528 354 518" fill="none" stroke="#f43f5e" stroke-width="1" opacity="0.45"/>
    <text x="340" y="531" fill="#0f172a" font-size="10.5" font-weight="bold">Baños Sur</text>
    <text x="415" y="531" text-anchor="end" font-size="10">🚻</text>
    <text x="340" y="550" fill="#1e293b" font-size="8.5" font-weight="bold"><tspan fill="#d97706" font-weight="bold">M: </tspan>Sanitarios P.B.</text>
    <text x="340" y="566" fill="#1e293b" font-size="8.5" font-weight="bold"><tspan fill="#2563eb" font-weight="bold">T: </tspan>Sanitarios P.B.</text>
    <text x="340" y="582" fill="#1e293b" font-size="8.5" font-weight="bold"><tspan fill="#7c3aed" font-weight="bold">N: </tspan>Sanitarios P.B.</text>
  </g>
  <g id="admin_preceptoria">
    <rect x="425" y="510" width="120" height="130" rx="6" fill="#f8fafc" stroke="#475569" stroke-width="1.75" filter="url(#boxShadow)"/>
    <path d="M 433 518 Q 443 528 449 518" fill="none" stroke="#f43f5e" stroke-width="1" opacity="0.45"/>
    <text x="435" y="531" fill="#0f172a" font-size="11.5" font-weight="bold">Preceptoría</text>
    <text x="535" y="531" text-anchor="end" font-size="10">📋</text>
    <text x="435" y="550" fill="#1e293b" font-size="9" font-weight="bold"><tspan fill="#d97706" font-weight="bold">M: </tspan>Preceptoría T.M.</text>
    <text x="435" y="566" fill="#1e293b" font-size="9" font-weight="bold"><tspan fill="#2563eb" font-weight="bold">T: </tspan>Preceptoría T.T.</text>
    <text x="435" y="582" fill="#1e293b" font-size="9" font-weight="bold"><tspan fill="#7c3aed" font-weight="bold">N: </tspan>Preceptoría T.N.</text>
    <text x="435" y="630" fill="#b45309" font-size="7.5" font-weight="600">⚠️ Puestos PC y Asistencia</text>
  </g>
  <g id="admin_kiosco">
    <rect x="590" y="510" width="70" height="130" rx="6" fill="#ffedd5" stroke="#f97316" stroke-width="1.75" filter="url(#boxShadow)"/>
    <path d="M 598 518 Q 608 528 614 518" fill="none" stroke="#f43f5e" stroke-width="1" opacity="0.45"/>
    <text x="600" y="531" fill="#0f172a" font-size="10.5" font-weight="bold">Kiosco</text>
    <text x="600" y="550" fill="#1e293b" font-size="8.5" font-weight="bold"><tspan fill="#d97706" font-weight="bold">M: </tspan>Buffet T.M.</text>
    <text x="600" y="566" fill="#1e293b" font-size="8.5" font-weight="bold"><tspan fill="#2563eb" font-weight="bold">T: </tspan>Buffet T.T.</text>
    <text x="600" y="582" fill="#1e293b" font-size="8.5" font-weight="bold"><tspan fill="#7c3aed" font-weight="bold">N: </tspan>Buffet T.N.</text>
  </g>
  <g id="aula_1">
    <rect x="660" y="510" width="110" height="130" rx="6" fill="#ffedd5" stroke="#f97316" stroke-width="1.75" filter="url(#boxShadow)"/>
    <path d="M 668 518 Q 678 528 684 518" fill="none" stroke="#f43f5e" stroke-width="1" opacity="0.45"/>
    <text x="670" y="531" fill="#0f172a" font-size="11.5" font-weight="bold">Aula 1</text>
    <text x="760" y="531" text-anchor="end" font-size="10">🍳</text>
    <text x="670" y="550" fill="#1e293b" font-size="8.5" font-weight="bold"><tspan fill="#d97706" font-weight="bold">M: </tspan>Cocina 3°</text>
    <text x="670" y="566" fill="#1e293b" font-size="8.5" font-weight="bold"><tspan fill="#2563eb" font-weight="bold">T: </tspan>Servicio de Salud 3°</text>
    <text x="670" y="582" fill="#1e293b" font-size="8.5" font-weight="bold"><tspan fill="#7c3aed" font-weight="bold">N: </tspan>Financiera 3°</text>
  </g>
  <g id="aula_2">
    <rect x="770" y="510" width="110" height="130" rx="6" fill="#f3e8ff" stroke="#a855f7" stroke-width="1.75" filter="url(#boxShadow)"/>
    <path d="M 778 518 Q 788 528 794 518" fill="none" stroke="#f43f5e" stroke-width="1" opacity="0.45"/>
    <text x="780" y="531" fill="#0f172a" font-size="11.5" font-weight="bold">Aula 2</text>
    <text x="870" y="531" text-anchor="end" font-size="10">⚖️</text>
    <text x="780" y="550" fill="#1e293b" font-size="8.5" font-weight="bold"><tspan fill="#d97706" font-weight="bold">M: </tspan>Jurídica 2°</text>
    <text x="780" y="566" fill="#1e293b" font-size="8.5" font-weight="bold"><tspan fill="#2563eb" font-weight="bold">T: </tspan>Agente Sanitario 3°</text>
    <text x="780" y="582" fill="#1e293b" font-size="8.5" font-weight="bold"><tspan fill="#7c3aed" font-weight="bold">N: </tspan>Financiera 2°</text>
    <text x="780" y="630" fill="#b45309" font-size="7.5" font-weight="600">⚠️ Lun: IA 1°</text>
  </g>
  <g id="aula_3">
    <rect x="880" y="510" width="110" height="130" rx="6" fill="#f3e8ff" stroke="#a855f7" stroke-width="1.75" filter="url(#boxShadow)"/>
    <path d="M 888 518 Q 898 528 904 518" fill="none" stroke="#f43f5e" stroke-width="1" opacity="0.45"/>
    <text x="890" y="531" fill="#0f172a" font-size="11.5" font-weight="bold">Aula 3</text>
    <text x="980" y="531" text-anchor="end" font-size="10">⚖️</text>
    <text x="890" y="550" fill="#1e293b" font-size="8.5" font-weight="bold"><tspan fill="#d97706" font-weight="bold">M: </tspan>Periodismo 1°</text>
    <text x="890" y="566" fill="#1e293b" font-size="8.5" font-weight="bold"><tspan fill="#2563eb" font-weight="bold">T: </tspan>Laboratorio 1°</text>
    <text x="890" y="582" fill="#1e293b" font-size="8.5" font-weight="bold"><tspan fill="#7c3aed" font-weight="bold">N: </tspan>Hemoterapia 1°</text>
  </g>
  <g id="aula_4">
    <rect x="990" y="510" width="175" height="130" rx="6" fill="#fef3c7" stroke="#f59e0b" stroke-width="1.75" filter="url(#boxShadow)"/>
    <path d="M 998 518 Q 1008 528 1014 518" fill="none" stroke="#f43f5e" stroke-width="1" opacity="0.45"/>
    <text x="1000" y="531" fill="#0f172a" font-size="11.5" font-weight="bold">Aula 4</text>
    <text x="1155" y="531" text-anchor="end" font-size="10">🦺</text>
    <text x="1000" y="550" fill="#1e293b" font-size="9" font-weight="bold"><tspan fill="#d97706" font-weight="bold">M: </tspan>Higiene y Seguridad 1°</text>
    <text x="1000" y="566" fill="#1e293b" font-size="9" font-weight="bold"><tspan fill="#2563eb" font-weight="bold">T: </tspan>Farmacia 1°</text>
    <text x="1000" y="582" fill="#1e293b" font-size="9" font-weight="bold"><tspan fill="#7c3aed" font-weight="bold">N: </tspan>Higiene y Seguridad 2°</text>
  </g>
</svg>